<?xml version="1.0" encoding="UTF-8" standalone="no"?><!DOCTYPE svg PUBLIC "-//W3C//DTD SVG 1.1//EN" "http://www.w3.org/Graphics/SVG/1.1/DTD/svg11.dtd"><svg width="100%" height="100%" viewBox="0 0 1280 800" version="1.1" xmlns="http://www.w3.org/2000/svg" xmlns:xlink="http://www.w3.org/1999/xlink" xml:space="preserve" xmlns:serif="http://www.serif.com/" style="fill-rule:evenodd;clip-rule:evenodd;stroke-linecap:round;stroke-linejoin:round;stroke-miterlimit:1.5;"><path d="M181,0c-79.935,44.616 -9.319,79.292 19,84c64.167,10.667 288,-18.833 366,-20c34.271,-0.513 89.5,-6 102,13c12.5,19 -61.847,100.686 -27,101c37,0.333 174.667,-79.833 249,-99c63.796,-16.45 159,-2.833 197,-16c22.115,-7.663 20.667,-42 31,-63" style="fill:#45c3ff;"/><path d="M784,107c19.759,-11.292 40.824,-20.683 64,-27" style="fill:none;stroke:#fff;stroke-width:6px;"/><path d="M218,25c-10.355,3.001 -27.83,12.734 -21,19.542c6.395,6.376 25.976,10.596 40,8.458" style="fill:none;stroke:#fff;stroke-width:6px;"/><path d="M1093,7c-1.285,11.146 -3.854,33.437 -14,39c-20.392,11.181 -54.841,8.431 -77,9" style="fill:none;stroke:#fff;stroke-width:6px;"/><path d="M205,13c-11.813,6.767 -35.439,20.301 -34,32c2.241,18.214 54.768,26.168 86,22" style="fill:none;stroke:#fff;stroke-width:6px;"/><path d="M675,66c11.779,4.216 9.529,18.22 -1,38" style="fill:none;stroke:#fff;stroke-width:6px;"/><path d="M666,129c-5.001,7.813 -15.002,23.438 -7,23c12.167,-0.667 57.389,-18.222 80,-27" style="fill:none;stroke:#fff;stroke-width:6px;"/><path d="M270,66c1.667,0 3.333,0 5,0" style="fill:none;stroke:#fff;stroke-width:6px;"/><path d="M1037,38.542c7.167,-0.428 21.5,-1.285 27,-3.542c3.596,-1.476 5.199,-7.159 6,-10" style="fill:none;stroke:#fff;stroke-width:6px;"/><path d="M1072,16c0,-1.667 0,1.667 0,0Z" style="fill:none;stroke:#fff;stroke-width:6px;"/></svg>